<?xml version="1.0" encoding="UTF-8"?>
<svg version="1.1" xmlns="http://www.w3.org/2000/svg" width="890" height="930">
<path d="M0 0 C1.28877265 0.8422846 2.57923521 1.68198735 3.87109375 2.51953125 C12.5773935 8.23734878 19.96632173 14.29573799 27 22 C25.79618552 24.49361571 24.54571278 26.68143083 23 29 C24.48886719 28.20335937 24.48886719 28.20335937 26.0078125 27.390625 C37.01374534 21.62178186 48.37350827 16.5489779 61 16 C62.50046875 15.92265625 62.50046875 15.92265625 64.03125 15.84375 C90.03721828 15.14088599 111.77479046 25.08712359 130.65625 42.44140625 C147.86540329 59.00262455 157.68955379 81.51345259 158.25 105.4375 C157.61835373 131.11206306 147.17794787 151.8133267 129.4375 169.8125 C128.90753418 170.35197266 128.37756836 170.89144531 127.83154297 171.44726562 C124.15085318 175.09734913 120.28261419 178.07831743 116 181 C120.00710741 185.7083512 124.08800507 190.32857918 128.265625 194.88671875 C132.26207953 199.75627258 132.31952665 203.74518114 132.3359375 209.859375 C132.3425943 210.72258362 132.3492511 211.58579224 132.35610962 212.47515869 C132.36622438 214.30080031 132.370927 216.12647882 132.37060547 217.95214844 C132.37496316 220.72654299 132.41125099 223.49932589 132.44921875 226.2734375 C132.4550905 228.05207793 132.4590575 229.83072587 132.4609375 231.609375 C132.47530853 232.43048767 132.48967957 233.25160034 132.50448608 234.09759521 C132.44097258 242.22420583 129.41999313 248.07066673 123.72460938 253.7734375 C123.21736328 254.26070313 122.71011719 254.74796875 122.1875 255.25 C121.69185547 255.75273437 121.19621094 256.25546875 120.68554688 256.7734375 C114.95688546 262.40625258 108.87169806 266.12087947 100.66987133 266.12863445 C99.80582532 266.1318589 98.94177931 266.13508335 98.05155009 266.1384055 C97.10691207 266.1368569 96.16227404 266.1353083 95.18901062 266.13371277 C94.18189445 266.13597833 93.17477828 266.13824388 92.13714343 266.14057809 C88.75246882 266.14692316 85.36783421 266.1460884 81.9831543 266.14526367 C79.56045479 266.14825486 77.13775577 266.15165729 74.71505737 266.15544128 C68.81102098 266.16337018 62.906994 266.16649614 57.00295337 266.16705366 C52.2033358 266.16752886 47.40372152 266.16958377 42.604105 266.17275429 C28.99482604 266.18156122 15.38555498 266.18617365 1.77627315 266.18542381 C1.04258592 266.18538386 0.30889869 266.1853439 -0.44702148 266.18530273 C-1.54889699 266.18524141 -1.54889699 266.18524141 -2.6730326 266.18517885 C-14.57617141 266.18477246 -26.47927858 266.19434012 -38.38240824 266.2084411 C-50.60591507 266.22280727 -62.82940647 266.22971114 -75.05292195 266.22884732 C-81.91488079 266.22851542 -88.77680647 266.23125966 -95.63875771 266.24202538 C-102.0926088 266.25208593 -108.54640794 266.25179252 -115.00026321 266.24450874 C-117.36939916 266.24346161 -119.73853944 266.24583339 -122.10766792 266.2518692 C-125.34121462 266.25957384 -128.57451832 266.25495425 -131.80805969 266.24723816 C-132.74600555 266.25238172 -133.68395141 266.25752529 -134.65031987 266.26282471 C-142.39006332 266.22200036 -148.12313409 265.4281548 -153.9375 259.875 C-154.783125 259.06933594 -155.62875 258.26367188 -156.5 257.43359375 C-157.7375 256.22896484 -157.7375 256.22896484 -159 255 C-160.1446875 253.96552734 -160.1446875 253.96552734 -161.3125 252.91015625 C-162.01375 252.25917969 -162.715 251.60820312 -163.4375 250.9375 C-164.05496094 250.36902344 -164.67242187 249.80054688 -165.30859375 249.21484375 C-169.62237399 243.56608302 -170.45602765 237.45782701 -170.3984375 230.58984375 C-170.40130768 229.81870743 -170.40417786 229.04757111 -170.40713501 228.25306702 C-170.40916187 226.63541929 -170.4037293 225.01774628 -170.39111328 223.40014648 C-170.37501656 220.94003022 -170.3910194 218.48155091 -170.41015625 216.02148438 C-170.408174 214.44010058 -170.4043307 212.8587178 -170.3984375 211.27734375 C-170.40451019 210.55111313 -170.41058289 209.82488251 -170.4168396 209.0766449 C-170.27765499 198.85621068 -164.92128925 192.97765154 -158 186 C-155.40512088 183.57519722 -152.72339251 181.27842878 -150 179 C-148.55932499 177.75366065 -147.12178349 176.5036894 -145.6875 175.25 C-145.05199219 174.69828125 -144.41648437 174.1465625 -143.76171875 173.578125 C-142.88966797 172.79695313 -142.88966797 172.79695313 -142 172 C-141.47758224 171.55142136 -140.95516449 171.10284271 -140.41691589 170.64067078 C-137.94516123 167.77858443 -138.51661453 164.01147827 -138.48828125 160.39453125 C-138.47033005 159.55532639 -138.45237885 158.71612152 -138.43388367 157.85148621 C-138.37971437 155.17187521 -138.34586427 152.49244298 -138.3125 149.8125 C-138.27933271 147.99541779 -138.2448436 146.1783592 -138.20898438 144.36132812 C-138.12398428 139.90768095 -138.05720498 135.45408741 -138 131 C-138.66314209 130.97421875 -139.32628418 130.9484375 -140.00952148 130.921875 C-145.60181678 130.5624323 -148.98125616 130.14602549 -153.0625 126 C-153.87976563 125.1853125 -154.69703125 124.370625 -155.5390625 123.53125 C-156.35117187 122.6959375 -157.16328125 121.860625 -158 121 C-158.83273437 120.2471875 -159.66546875 119.494375 -160.5234375 118.71875 C-165.54947245 114.09935218 -169.2156358 109.97212621 -170 103 C-169.87938927 95.92417076 -165.69253781 91.82164188 -161 87 C-160.30076416 86.25032959 -159.60152832 85.50065918 -158.88110352 84.72827148 C-152.52677221 78.08574669 -145.58509407 72.94675834 -137.9375 67.9375 C-136.69840966 67.11319409 -135.46014387 66.28764753 -134.22265625 65.4609375 C-131.70089371 63.77760451 -129.17579225 62.0994797 -126.64794922 60.42529297 C-121.23207857 56.83247027 -115.86788693 53.16394663 -110.5 49.5 C-108.4403907 48.09853714 -106.38049229 46.69749908 -104.3203125 45.296875 C-103.2880957 44.59498047 -102.25587891 43.89308594 -101.19238281 43.16992188 C-92.65519894 37.36703947 -84.11296428 31.57160436 -75.56924438 25.77835083 C-71.67931342 23.14027358 -67.79137778 20.49927836 -63.9045105 17.85668945 C-61.14759054 15.98273431 -58.38969652 14.11021581 -55.63165283 12.23791504 C-54.32162552 11.34814682 -53.0119962 10.45779226 -51.70281982 9.56677246 C-47.48039089 6.69330302 -43.24597094 3.83855839 -39 1 C-38.36831909 0.57561646 -37.73663818 0.15123291 -37.08581543 -0.28601074 C-35.19584269 -1.55127993 -33.29844344 -2.80454886 -31.3984375 -4.0546875 C-30.54422714 -4.62897995 -30.54422714 -4.62897995 -29.67276001 -5.21487427 C-18.55138842 -12.46006005 -9.76719863 -6.74142458 0 0 Z M51.0625 39.75 C50.01352539 40.01635254 50.01352539 40.01635254 48.94335938 40.28808594 C43.91237798 41.62202276 39.51261313 43.36764234 35 46 C38.04292583 48.02861722 41.06351296 49.45215887 44.375 51 C52.07010975 54.71985825 58.40763905 59.58646563 65 65 C66.66556069 66.33471462 68.33184128 67.66853387 70 69 C70 67.68 70 66.36 70 65 C67.63624434 62.89229266 67.63624434 62.89229266 65 61 C62.33254015 56.99881022 62.27500075 53.70832847 63 49 C64.29944744 47.30678061 65.62926214 45.63604196 67 44 C66.86382428 40.75706416 66.86382428 40.75706416 66 38 C60.76885939 37.80952934 56.10262881 38.43802016 51.0625 39.75 Z M78 39 C79.485 39.99 79.485 39.99 81 41 C86.03949735 44.90818162 88.47974777 46.99409822 89.5625 53.25 C88.93791639 57.41389076 88.35883516 57.93159281 85.5 60.75 C82.31850856 64.0469488 81.5 66.03151468 81.5 70.625 C81.72536466 74.46746751 82.33333018 78.21109317 83 82 C85.54161712 82.30487331 88.07735304 82.5693358 90.625 82.8125 C91.33785156 82.90208984 92.05070312 82.99167969 92.78515625 83.08398438 C96.95302451 83.46205612 96.95302451 83.46205612 100.73925781 81.93115234 C102.19945391 80.66543652 103.60254826 79.33466768 105 78 C109.07108776 76.83683207 111.19028135 76.71421695 115.1875 78.125 C118.76339452 80.50892968 121.29985253 83.01624883 122.75 87.125 C124.84867118 90.27300678 128.44136125 91.06982116 132 92 C132.99 92 133.98 92 135 92 C132.12664611 77.8726767 125.5987878 64.84826915 115 55 C114.32582031 54.36835938 113.65164063 53.73671875 112.95703125 53.0859375 C103.89546823 45.36745793 89.99121263 38.4150628 78 39 Z M13 64 C12.4534375 64.77085937 11.906875 65.54171875 11.34375 66.3359375 C5.35767071 75.52884499 1.56710815 86.03590909 1 97 C4.14183058 96.41547338 6.35729664 95.87623821 8.30078125 93.2265625 C8.69652344 92.53304687 9.09226562 91.83953125 9.5 91.125 C11.78408334 87.1567666 13.68909277 84.90674743 18 83 C21.1339955 82.83873093 24.00393917 83.04696732 27 84 C27.44851318 84.51224121 27.89702637 85.02448242 28.35913086 85.55224609 C29.88489971 87.19245471 29.88489971 87.19245471 31.98388672 87.14672852 C32.74975098 87.03772217 33.51561523 86.92871582 34.3046875 86.81640625 C35.19124023 86.69797363 36.07779297 86.57954102 36.99121094 86.45751953 C37.98411133 86.30653809 38.97701172 86.15555664 40 86 C41.10375977 85.84515137 42.20751953 85.69030273 43.34472656 85.53076172 C46.94128909 85.01902339 50.5332075 84.48165272 54.125 83.9375 C55.36765625 83.75123047 56.6103125 83.56496094 57.890625 83.37304688 C60.9274156 82.91752829 63.96385511 82.45979925 67 82 C58.7501941 67.90949466 45.29509588 60.49429358 30 56 C29.13890625 55.7215625 28.2778125 55.443125 27.390625 55.15625 C19.96554244 53.41519616 16.95137225 58.32408817 13 64 Z M87 93 C88.36979665 96.44844851 89.77516973 99.88127606 91.1875 103.3125 C91.57486328 104.28896484 91.96222656 105.26542969 92.36132812 106.27148438 C92.75126953 107.20927734 93.14121094 108.14707031 93.54296875 109.11328125 C93.89383545 109.97735596 94.24470215 110.84143066 94.60620117 111.73168945 C96.32471841 114.52845661 98.11655938 115.50522255 101 117 C107.79127358 121.89033019 107.79127358 121.89033019 109 126 C109.375 129.4375 109.375 129.4375 109 133 C108.319375 133.7425 107.63875 134.485 106.9375 135.25 C103.82402681 139.66912323 105.16978761 143.86183515 106 149 C106.17402344 150.11632812 106.34804688 151.23265625 106.52734375 152.3828125 C106.99331822 155.26028989 107.48429516 158.13107892 108 161 C122.37595264 152.78516992 129.9174406 139.05174865 134.3125 123.5 C135.91386901 117.21671679 136.48333051 111.4578326 136 105 C130.67848761 102.09735688 125.19828313 99.13554894 119 99 C116.75 100.75 116.75 100.75 115 103 C110.75966206 104.41344598 107.77411167 104.06257619 103.7109375 102.1640625 C101.15472472 100.42490403 99.59425639 98.111515 97.9453125 95.5234375 C94.75440348 93.02453284 90.94987317 93.21269346 87 93 Z M35 98 C33.23624143 100.35798581 33.23624143 100.35798581 32 103 C29.41530934 106.2724935 27.03950045 108.59323895 23.125 110.125 C19.33104053 109.97324162 17.21764793 108.67260553 13.94921875 106.8671875 C10.06988745 105.14131265 6.88679534 106.67227129 3.125 108.0625 C2.42375 108.371875 1.7225 108.68125 1 109 C-0.15107044 125.40275376 6.96771099 140.33056762 17.5 152.5 C26.01188627 161.35872034 36.82040757 168.56408151 49 171 C50.98 168.03 52.96 165.06 55 162 C54.505 161.319375 54.01 160.63875 53.5 159.9375 C51.62141085 156.25859625 51.49761154 154.0908775 52 150 C54.08337861 146.13086829 56.20048166 143.25596401 60 141 C60.65871094 140.90847656 61.31742188 140.81695312 61.99609375 140.72265625 C64.1811938 140.17653496 64.1811938 140.17653496 65.16015625 138.015625 C69.87458092 123.56621952 71.68801106 108.16172515 71 93 C59.80253635 93 45.46998673 93.86908702 35 98 Z M82 108 C81.85900879 108.75095947 81.71801758 109.50191895 81.57275391 110.27563477 C80.92687712 113.70523522 80.27598343 117.13386534 79.625 120.5625 C79.29242187 122.33463867 79.29242187 122.33463867 78.953125 124.14257812 C77.07694889 133.9925027 77.07694889 133.9925027 75.82421875 138.18359375 C74.48637108 142.75510168 75.62250841 145.23103565 77.6875 149.4375 C79 153 79 153 78.5 156.0625 C75.44214802 162.05079346 73.08750665 164.80696003 66.8125 167.125 C65.95269531 167.39570313 65.09289062 167.66640625 64.20703125 167.9453125 C61.55167473 169.21424394 61.00572072 170.29185816 60 173 C72.04491203 175.09723174 85.98885053 173.50557473 97 168 C98.01546288 164.95361136 98.00760566 163.9497429 97.4765625 160.91015625 C97.27546875 159.73356445 97.27546875 159.73356445 97.0703125 158.53320312 C96.92335938 157.71787109 96.77640625 156.90253906 96.625 156.0625 C96.48578125 155.25103516 96.3465625 154.43957031 96.203125 153.60351562 C95.81956413 151.3980406 95.43185796 149.19653689 95 147 C94.8870459 146.29286865 94.7740918 145.5857373 94.65771484 144.85717773 C93.64665631 142.0022697 91.3322455 141.40742557 88.7890625 140.046875 C85.97377312 138.39950043 84.58548967 136.85388141 83 134 C82.45214185 130.89923585 82.39132177 128.09458836 83 125 C83.721875 124.175 84.44375 123.35 85.1875 122.5 C87.2941687 120.20926993 87.2941687 120.20926993 86.66796875 117.8046875 C85.4747545 114.14863202 84.14204689 111.21307033 82 108 Z M-73 114 C-73 135.12 -73 156.24 -73 178 C-71.68 178 -70.36 178 -69 178 C-69 156.88 -69 135.76 -69 114 C-70.32 114 -71.64 114 -73 114 Z M-21 117 C-21 137.13 -21 157.26 -21 178 C-19.68 178 -18.36 178 -17 178 C-16.94972656 176.96746094 -16.89945313 175.93492187 -16.84765625 174.87109375 C-15.83845098 170.26223466 -13.81589298 168.1119109 -10.4375 165.0625 C-9.65729492 164.32290039 -9.65729492 164.32290039 -8.86132812 163.56835938 C-7.58752167 162.36467071 -6.29552951 161.18027648 -5 160 C-3.02 161.32 -1.04 162.64 1 164 C-0.27853917 161.25173824 -1.68558678 159.06862809 -3.625 156.75 C-12.46632204 145.17156106 -17.48075486 131.1966873 -20 117 C-20.33 117 -20.66 117 -21 117 Z " fill="#FEFEFE" transform="translate(444,165)"/>
<path d="M0 0 C1.15145508 -0.04350586 1.15145508 -0.04350586 2.32617188 -0.08789062 C9.01267525 -0.1623761 12.38385622 2.10601124 17.33203125 6.6015625 C18.46705078 7.75785156 18.46705078 7.75785156 19.625 8.9375 C20.39457031 9.71351563 21.16414062 10.48953125 21.95703125 11.2890625 C24.241595 13.78043939 24.76777706 14.75423435 25.0390625 18.140625 C24.33603038 27.98307465 13.34470698 38.18434418 7.4453125 45.6796875 C-0.28684773 55.50981596 -7.72699466 65.52206362 -14.78515625 75.84765625 C-17.63699876 79.99346909 -20.60491668 84.05433378 -23.5625 88.125 C-27.91621462 94.13779133 -32.24879906 100.16416594 -36.5 106.25 C-37.2113208 107.25220581 -37.2113208 107.25220581 -37.93701172 108.2746582 C-40.56085974 111.94110452 -40.56085974 111.94110452 -41.1875 116.3125 C-39.88293498 117.76284604 -39.88293498 117.76284604 -38.1875 119 C-37.1975 119.763125 -36.2075 120.52625 -35.1875 121.3125 C-33.85210614 119.1053907 -32.51891551 116.89700868 -31.1875 114.6875 C-30.77959229 114.01178955 -30.37168457 113.3360791 -29.95141602 112.63989258 C-27.59385484 108.71641012 -25.31150331 104.763985 -23.09960938 100.75683594 C-17.15888391 90.04805326 -9.52792908 79.20611939 0.8125 72.3125 C5.13717403 72.3330204 7.86010122 73.00699582 11.05078125 75.859375 C12.09128958 76.91172224 13.11592887 77.97997159 14.125 79.0625 C14.64900391 79.5884375 15.17300781 80.114375 15.71289062 80.65625 C18.62768011 83.67180685 20.73357698 86.15510108 21.8125 90.3125 C20.93798828 92.9597168 20.93798828 92.9597168 19.3828125 95.76171875 C18.83496094 96.77427734 18.28710938 97.78683594 17.72265625 98.83007812 C17.13355469 99.87615234 16.54445313 100.92222656 15.9375 102 C14.79115694 104.08553101 13.64776833 106.17268962 12.5078125 108.26171875 C11.99234863 109.18299561 11.47688477 110.10427246 10.94580078 111.0534668 C9.66302966 113.18921407 9.66302966 113.18921407 9.8125 115.3125 C15.54187857 108.8244883 20.42188342 102.6376055 24.40234375 94.8984375 C30.07397214 84.49783363 39.53239729 73.42286409 50.9453125 69.59765625 C54.27491344 69.22552438 56.59890602 69.4245044 59.37402344 71.45507812 C68.98024395 79.81573186 68.98024395 79.81573186 70.8125 85.3125 C69.79165104 87.71983149 68.72614467 89.95186811 67.5 92.25 C67.17837891 92.87068359 66.85675781 93.49136719 66.52539062 94.13085938 C65.62778553 95.86155997 64.72044574 97.58720177 63.8125 99.3125 C63.14318506 100.64450591 62.47588866 101.97753269 61.8125 103.3125 C62.61917114 102.46655273 62.61917114 102.46655273 63.44213867 101.60351562 C78.21467809 86.20842707 93.69610286 70.39299201 116.40625 69.109375 C117.6953125 69.09390625 118.984375 69.0784375 120.3125 69.0625 C121.6015625 69.03671875 122.890625 69.0109375 124.21875 68.984375 C131.37711134 69.63796451 135.26242193 74.48031458 140.0625 79.375 C140.69929688 80.01244141 141.33609375 80.64988281 141.9921875 81.30664062 C147.68397147 87.0529204 147.68397147 87.0529204 148.125 91.375 C147.73373746 96.30490795 146.02939071 99.94799641 143.8125 104.3125 C144.6478125 103.45978516 144.6478125 103.45978516 145.5 102.58984375 C159.39635235 88.52917642 174.87623855 74.79813697 195.375 73 C200.96431549 73.50811959 205.89798664 75.65047193 210.8125 78.3125 C211.493125 77.6525 212.17375 76.9925 212.875 76.3125 C216.6718927 73.72738157 218.29296516 73.46987486 222.8125 74.3125 C225.81341402 76.32494727 228.25944409 78.76939752 230.8125 81.3125 C231.50472656 81.89902344 232.19695312 82.48554687 232.91015625 83.08984375 C236.07839043 85.86756 237.69384903 87.28419161 238.1875 91.5625 C236.58524554 95.93228489 234.34705671 99.38566493 231.7734375 103.24609375 C224.9990983 113.83943294 220.44782249 125.67488183 215.8125 137.3125 C220.46103587 133.74501898 224.38169034 129.6965416 228.41015625 125.45703125 C230.8125 123.3125 230.8125 123.3125 232.765625 122.1796875 C236.29522761 122.40870752 238.21944507 125.16925012 240.5 127.625 C241.24733398 128.39360352 241.24733398 128.39360352 242.00976562 129.17773438 C246.78745499 134.14990228 247.4173467 137.25961193 247.3359375 144.08984375 C246.39279768 149.89648818 242.83385126 153.24032598 238.8125 157.3125 C237.94496094 158.23160156 237.07742188 159.15070313 236.18359375 160.09765625 C226.48382232 170.12857208 216.77281149 179.94720996 202.40234375 181.4296875 C194.43019612 181.06895684 190.56931785 177.73909897 185.375 172.1875 C184.73884766 171.52878906 184.10269531 170.87007812 183.44726562 170.19140625 C181.89030903 168.57591745 180.34629085 166.94994692 178.8125 165.3125 C175.76624311 167.08686612 172.93924346 168.92481745 170.1875 171.125 C162.21421521 177.08256673 155.72230327 181.02226691 145.5390625 180.81640625 C140.06608988 179.80492564 136.77970794 176.51753504 133 172.625 C132.20980469 171.81675781 131.41960937 171.00851562 130.60546875 170.17578125 C130.01378906 169.56089844 129.42210937 168.94601562 128.8125 168.3125 C127.67554688 168.84359375 126.53859375 169.3746875 125.3671875 169.921875 C109.85248146 177.06005695 91.40401705 185.29678579 74.0625 180.1875 C69.35349468 178.38223937 65.64940386 175.53002944 61.8125 172.3125 C61.20792969 171.8175 60.60335937 171.3225 59.98046875 170.8125 C58.58059926 169.65850923 57.19481191 168.48746513 55.8125 167.3125 C55.11125 167.91578125 54.41 168.5190625 53.6875 169.140625 C45.54067474 176.00343975 38.03604204 182.20973083 26.8125 181.3125 C19.90622107 179.43152159 16.14362552 176.29306024 11.3125 171.125 C10.68085938 170.47080078 10.04921875 169.81660156 9.3984375 169.14257812 C7.85765535 167.54343301 6.32987043 165.93382182 4.8125 164.3125 C4.02939453 165.16521484 4.02939453 165.16521484 3.23046875 166.03515625 C-3.84836155 173.46110958 -12.1782953 181.1408074 -22.875 181.8125 C-28.12082611 181.73658356 -30.46023395 180.16829829 -34.09765625 176.5234375 C-34.78730469 175.79382813 -35.47695313 175.06421875 -36.1875 174.3125 C-37.07308594 173.45914063 -37.95867187 172.60578125 -38.87109375 171.7265625 C-47.03809607 163.82600139 -47.03809607 163.82600139 -47.3203125 159.078125 C-47.31773437 158.24796875 -47.31515625 157.4178125 -47.3125 156.5625 C-47.31507813 155.74265625 -47.31765625 154.9228125 -47.3203125 154.078125 C-47.16196977 150.78087045 -46.69340679 147.5727882 -46.1875 144.3125 C-46.78175781 144.96476563 -47.37601563 145.61703125 -47.98828125 146.2890625 C-54.42550522 153.07667968 -60.85363921 158.03504697 -69.71875 161.22265625 C-78.36151537 164.60044588 -81.89088135 171.59088824 -86.70166016 179.0703125 C-94.13485584 190.28728081 -102.81252746 200.68293131 -112.1875 210.3125 C-112.90276855 211.0535498 -113.61803711 211.79459961 -114.35498047 212.55810547 C-116.80855299 215.09184372 -119.27679819 217.61042582 -121.75 220.125 C-122.52939941 220.92599121 -123.30879883 221.72698242 -124.11181641 222.55224609 C-135.302803 233.80421899 -146.11516238 240.10629903 -162.046875 241.52734375 C-169.12319994 241.0432668 -173.70423139 237.50057106 -178.4375 232.625 C-178.96182617 232.0875415 -179.48615234 231.55008301 -180.02636719 230.99633789 C-185.43179972 225.26358975 -187.21775785 220.80717933 -187.625 212.9375 C-187.03998777 195.97214541 -172.76230974 184.14652192 -161.1875 173.3125 C-147.94652107 161.50297825 -132.49566144 150.91295519 -116.28515625 143.60546875 C-103.87527591 137.95709874 -95.36101301 133.33633088 -88.45214844 121.4296875 C-86.04686327 117.40292437 -83.29828483 113.6015573 -80.625 109.75 C-79.51814419 108.12594447 -78.41265055 106.50095964 -77.30859375 104.875 C-73.03867167 98.61227451 -68.62781008 92.45503652 -64.1875 86.3125 C-63.13540878 84.85547444 -62.08332591 83.39844286 -61.03125 81.94140625 C-59.35914609 79.62616655 -57.68659845 77.31125374 -56.01269531 74.99731445 C-52.22903198 69.76488576 -48.47631407 64.51135315 -44.73681641 59.24731445 C-41.18863054 54.27237975 -37.51283674 49.39948946 -33.8046875 44.54296875 C-32.0896682 42.6367423 -32.0896682 42.6367423 -32.1875 41.3125 C-61.49109625 48.75180307 -89.22679428 61.33983133 -112.1875 81.3125 C-112.98414063 81.99699219 -113.78078125 82.68148437 -114.6015625 83.38671875 C-121.44852376 89.70797699 -126.76571334 97.82230016 -127.1875 107.3125 C-116.68625135 108.24594432 -107.72598288 102.86899645 -99.1875 97.3125 C-89.97697368 105.19078947 -89.97697368 105.19078947 -88.3125 109.6640625 C-87.87474777 117.40680515 -92.86095377 122.66919395 -97.68359375 128.1484375 C-104.87974628 135.90772205 -112.67694219 141.76773897 -123.47265625 142.55078125 C-134.5862396 142.76914535 -142.85918009 141.5592413 -151.4375 134 C-153.03434627 132.45131259 -154.61857 130.88946206 -156.1875 129.3125 C-156.86039062 128.68730469 -157.53328125 128.06210937 -158.2265625 127.41796875 C-163.54238418 122.40752406 -167.69313299 117.21767776 -168.28125 109.6015625 C-167.50021295 90.53124127 -153.5162018 76.37484008 -141.1875 63.3125 C-140.49527344 62.57773437 -139.80304688 61.84296875 -139.08984375 61.0859375 C-104.27227954 25.19596372 -50.16695535 0.64152117 0 0 Z M90.8125 118.3125 C84.41143682 126.49581998 82.44929096 134.10229023 82.8125 144.3125 C95.51029504 145.13663574 112.34072632 142.89058653 122.8125 135.3125 C126.96651932 130.26666508 131.8125 122.94333164 131.8125 116.3125 C131.33039063 116.73402344 130.84828125 117.15554688 130.3515625 117.58984375 C129.71992187 118.13769531 129.08828125 118.68554688 128.4375 119.25 C127.81101562 119.79527344 127.18453125 120.34054687 126.5390625 120.90234375 C124.09748331 122.89648422 122.8060957 123.31343951 119.6171875 123.78125 C114.32912342 123.12974313 112.38882522 120.65529498 108.9375 116.8125 C106.90347918 114.63835775 104.8606212 112.47341628 102.8125 110.3125 C98.87645352 110.3125 93.62672283 115.88239115 90.8125 118.3125 Z M5.8125 118.3125 C6.8125 120.3125 6.8125 120.3125 6.8125 120.3125 Z M176.8125 118.3125 C174.5025 120.6225 172.1925 122.9325 169.8125 125.3125 C170.1425 125.9725 170.4725 126.6325 170.8125 127.3125 C173.1225 125.0025 175.4325 122.6925 177.8125 120.3125 C177.4825 119.6525 177.1525 118.9925 176.8125 118.3125 Z " fill="#FEFEFE" transform="translate(422.1875,485.6875)"/>
<path d="M0 0 C92.6405667 -0.60476351 186.55009823 28.75127596 259.84301758 86.04003906 C260.95604461 86.89714013 262.0693393 87.75389369 263.18286133 88.61035156 C279.81266588 101.46801843 295.32827022 115.46402686 310.21801758 130.29003906 C310.96728516 131.03463379 311.71655273 131.77922852 312.48852539 132.54638672 C317.14421075 137.21556381 321.56272031 142.02571299 325.84301758 147.04003906 C326.3096582 147.57967285 326.77629883 148.11930664 327.25708008 148.67529297 C334.08123732 156.5739027 340.607288 164.6685721 346.84301758 173.04003906 C347.3405957 173.70632324 347.83817383 174.37260742 348.35083008 175.05908203 C372.97305273 208.17930703 392.89852614 245.17146147 406.84301758 284.04003906 C407.18526367 284.98588867 407.52750977 285.93173828 407.88012695 286.90625 C413.64577556 303.00787843 418.06900851 319.36517737 421.84301758 336.04003906 C422.08149414 337.09352539 422.3199707 338.14701172 422.56567383 339.23242188 C428.45670039 365.9187722 431.51277542 393.7125006 431.84301758 421.04003906 C431.85623047 422.08184326 431.86944336 423.12364746 431.88305664 424.19702148 C432.50001081 518.70501251 401.69143158 610.65594784 306.36645508 729.61035156 C304.77709426 731.2136855 303.18595266 732.81525616 301.59301758 734.41503906 C300.84842285 735.16430664 300.10382812 735.91357422 299.33666992 736.68554688 C294.66749283 741.34123223 289.85734365 745.7597418 284.84301758 750.04003906 C284.30338379 750.50667969 283.76375 750.97332031 283.20776367 751.45410156 C275.30915394 758.27825881 267.21448454 764.80430949 258.84301758 771.04003906 C258.1767334 771.53761719 257.51044922 772.03519531 256.82397461 772.54785156 C223.70374961 797.17007422 186.71159517 817.09554762 147.84301758 831.04003906 C146.89716797 831.38228516 145.95131836 831.72453125 144.97680664 832.07714844 C128.87517822 837.84279704 112.51787927 842.26602999 95.84301758 846.04003906 C94.78953125 846.27851562 93.73604492 846.51699219 92.65063477 846.76269531 C65.96428444 852.65372188 38.17055605 855.70979691 10.84301758 856.04003906 C9.80121338 856.05325195 8.75940918 856.06646484 7.68603516 856.08007812 C-84.95453155 856.68484163 -178.86406308 827.32880217 -252.15698242 770.04003906 C-253.27000945 769.182938 -254.38330414 768.32618444 -255.49682617 767.46972656 C-272.12663073 754.6120597 -287.64223506 740.61605126 -302.53198242 725.79003906 C-303.28125 725.04544434 -304.03051758 724.30084961 -304.80249023 723.53369141 C-309.45817559 718.86451432 -313.87668516 714.05436514 -318.15698242 709.04003906 C-318.62362305 708.50040527 -319.09026367 707.96077148 -319.57104492 707.40478516 C-326.39520217 699.50617543 -332.92125284 691.41150602 -339.15698242 683.04003906 C-339.90334961 682.04061279 -339.90334961 682.04061279 -340.66479492 681.02099609 C-365.28701758 647.9007711 -385.21249098 610.90861666 -399.15698242 572.04003906 C-399.49922852 571.09418945 -399.84147461 570.14833984 -400.1940918 569.17382812 C-405.9597404 553.0721997 -410.38297335 536.71490076 -414.15698242 520.04003906 C-414.51469727 518.45980957 -414.51469727 518.45980957 -414.87963867 516.84765625 C-420.77066523 490.16130592 -423.82674027 462.36757753 -424.15698242 435.04003906 C-424.17019531 433.99823486 -424.1834082 432.95643066 -424.19702148 431.88305664 C-424.81397566 337.37506561 -394.00539643 245.42413029 -298.68041992 126.46972656 C-297.09105911 124.86639263 -295.4999175 123.26482197 -293.90698242 121.66503906 C-293.1623877 120.91577148 -292.41779297 120.16650391 -291.65063477 119.39453125 C-286.98145768 114.73884589 -282.1713085 110.32033633 -277.15698242 106.04003906 C-276.61734863 105.57339844 -276.07771484 105.10675781 -275.52172852 104.62597656 C-267.62311879 97.80181932 -259.52844938 91.27576864 -251.15698242 85.04003906 C-250.49069824 84.54246094 -249.82441406 84.04488281 -249.13793945 83.53222656 C-216.01771446 58.91000391 -179.02556002 38.9845305 -140.15698242 25.04003906 C-139.21113281 24.69779297 -138.2652832 24.35554688 -137.29077148 24.00292969 C-121.18914306 18.23728108 -104.83184412 13.81404814 -88.15698242 10.04003906 C-87.10349609 9.8015625 -86.05000977 9.56308594 -84.96459961 9.31738281 C-57.16808459 3.18128678 -28.44191891 0.36072034 0 0 Z M-124.15698242 35.04003906 C-125.66083496 35.5234375 -125.66083496 35.5234375 -127.19506836 36.01660156 C-140.97528121 40.49915675 -154.28394814 45.83313788 -167.47583008 51.82275391 C-169.18870767 52.60042716 -170.90428846 53.37219152 -172.62329102 54.13623047 C-186.735756 60.41071014 -199.95645436 68.04414926 -213.15698242 76.04003906 C-214.01888184 76.56001465 -214.88078125 77.07999023 -215.76879883 77.61572266 C-235.88827844 89.82103654 -254.2729865 103.93039825 -271.64526367 119.77441406 C-273.0486581 121.04030639 -274.4587572 122.29919436 -275.89257812 123.53051758 C-281.41305724 128.27797831 -286.58455698 133.31802499 -291.71948242 138.47753906 C-292.53094727 139.28513672 -293.34241211 140.09273438 -294.1784668 140.92480469 C-299.04620744 145.80040286 -303.68753849 150.79832482 -308.15698242 156.04003906 C-309.04592024 157.06120776 -309.93521624 158.08206481 -310.82495117 159.10253906 C-329.51172627 180.88929081 -345.20675795 204.87419522 -359.02905273 229.99707031 C-359.7597321 231.32051728 -360.49573624 232.64104402 -361.23803711 233.95800781 C-388.69484981 282.6919663 -403.39555616 339.58175354 -408.15698242 395.04003906 C-408.26284668 396.23862549 -408.26284668 396.23862549 -408.37084961 397.46142578 C-412.84957179 450.83878929 -405.56629077 505.19936712 -389.15698242 556.04003906 C-388.67358398 557.5438916 -388.67358398 557.5438916 -388.18041992 559.078125 C-383.69786473 572.85833785 -378.36388361 586.16700478 -372.37426758 599.35888672 C-371.59659433 601.07176431 -370.82482997 602.7873451 -370.06079102 604.50634766 C-363.78631135 618.61881264 -356.15287222 631.839511 -348.15698242 645.04003906 C-347.63700684 645.90193848 -347.11703125 646.76383789 -346.58129883 647.65185547 C-334.37598495 667.77133508 -320.26662323 686.15604314 -304.42260742 703.52832031 C-303.15671509 704.93171474 -301.89782712 706.34181384 -300.66650391 707.77563477 C-295.91904317 713.29611388 -290.8789965 718.46761362 -285.71948242 723.60253906 C-284.91188477 724.41400391 -284.10428711 725.22546875 -283.2722168 726.06152344 C-278.39661862 730.92926408 -273.39869666 735.57059513 -268.15698242 740.04003906 C-267.13581373 740.92897688 -266.11495667 741.81827288 -265.09448242 742.70800781 C-243.30773067 761.39478292 -219.32282627 777.08981459 -194.19995117 790.91210938 C-192.87650421 791.64278875 -191.55597746 792.37879288 -190.23901367 793.12109375 C-141.50505518 820.57790645 -84.61526794 835.2786128 -29.15698242 840.04003906 C-27.958396 840.14590332 -27.958396 840.14590332 -26.7355957 840.25390625 C26.64176781 844.73262843 81.00234564 837.44934741 131.84301758 821.04003906 C133.34687012 820.55664062 133.34687012 820.55664062 134.88110352 820.06347656 C148.66131636 815.58092137 161.96998329 810.24694025 175.16186523 804.25732422 C176.87474282 803.47965097 178.59032361 802.70788661 180.30932617 801.94384766 C194.42179116 795.66936799 207.64248952 788.03592886 220.84301758 780.04003906 C221.70491699 779.52006348 222.56681641 779.00008789 223.45483398 778.46435547 C243.5743136 766.25904159 261.95902165 752.14967987 279.33129883 736.30566406 C280.736589 735.03806173 282.148399 733.77729192 283.58300781 732.54296875 C289.04092464 727.84322791 294.19069121 722.88445822 299.28051758 717.79003906 C300.12018066 716.95029541 300.95984375 716.11055176 301.82495117 715.24536133 C306.85113476 710.1726662 311.56916952 705.05975249 315.95629883 699.42285156 C317.91595811 696.94791956 320.00317889 694.66106516 322.15551758 692.35253906 C339.94933045 672.73609605 353.99736078 649.19826288 366.71508789 626.08300781 C367.44576726 624.75956085 368.18177139 623.4390341 368.92407227 622.12207031 C396.38088496 573.38811182 411.08159132 516.49832458 415.84301758 461.04003906 C415.94888184 459.84145264 415.94888184 459.84145264 416.05688477 458.61865234 C420.53560694 405.24128883 413.25232592 350.88071101 396.84301758 300.04003906 C396.35961914 298.53618652 396.35961914 298.53618652 395.86645508 297.00195312 C391.38389989 283.22174028 386.04991876 269.91307335 380.06030273 256.72119141 C379.28262948 255.00831382 378.51086512 253.29273303 377.74682617 251.57373047 C371.4723465 237.46126548 363.83890738 224.24056712 355.84301758 211.04003906 C355.32304199 210.17813965 354.80306641 209.31624023 354.26733398 208.42822266 C342.0620201 188.30874304 327.95265839 169.92403499 312.10864258 152.55175781 C310.84104024 151.14646764 309.58027044 149.73465764 308.34594727 148.30004883 C303.64620642 142.842132 298.68743673 137.69236543 293.59301758 132.60253906 C292.75327393 131.76287598 291.91353027 130.92321289 291.04833984 130.05810547 C285.97564472 125.03192188 280.862731 120.31388712 275.22583008 115.92675781 C272.75089807 113.96709854 270.46404368 111.87987775 268.15551758 109.72753906 C248.53907456 91.93372619 225.0012414 77.88569586 201.88598633 65.16796875 C200.56253937 64.43728938 199.24201262 63.70128525 197.92504883 62.95898438 C149.19109034 35.50217168 92.3013031 20.80146532 36.84301758 16.04003906 C35.64443115 15.9341748 35.64443115 15.9341748 34.42163086 15.82617188 C-18.95573265 11.3474497 -73.31631048 18.63073072 -124.15698242 35.04003906 Z " fill="#000000" transform="translate(438.156982421875,28.9599609375)"/>
<path d="M0 0 C26.00596828 -0.70286401 47.74354046 9.24337359 66.625 26.59765625 C83.83415329 43.15887455 93.65830379 65.66970259 94.21875 89.59375 C93.58710373 115.26831306 83.14669787 135.9695767 65.40625 153.96875 C64.87628418 154.50822266 64.34631836 155.04769531 63.80029297 155.60351562 C58.81182214 160.55050549 54.10830387 165.10434081 46.96875 166.15625 C44.6643555 167.08356056 42.37383005 168.04566701 40.09375 169.03125 C16.4028449 178.67594747 -10.85051345 177.86764431 -34.46875 168.34375 C-57.34842804 157.78795852 -71.74681091 140.40710111 -81.12109375 117.4921875 C-81.86697032 115.39185844 -82.48698786 113.31692978 -83.03125 111.15625 C-83.23363281 110.3725 -83.43601562 109.58875 -83.64453125 108.78125 C-85.03575795 102.72420861 -85.9506804 96.34510407 -85.03125 90.15625 C-84.30808594 89.21845703 -84.30808594 89.21845703 -83.5703125 88.26171875 C-81.44075717 85.34844382 -81.43236486 82.91632705 -81.09375 79.34375 C-78.69940425 58.53937635 -70.08550567 36.05535016 -53.59375 22.28125 C-51.75473637 20.88604826 -49.90098094 19.51000967 -48.03125 18.15625 C-47.21785156 17.53105469 -46.40445313 16.90585938 -45.56640625 16.26171875 C-32.36655518 6.44205645 -16.3832453 0.84449718 0 0 Z M-12.96875 23.90625 C-14.01772461 24.17260254 -14.01772461 24.17260254 -15.08789062 24.44433594 C-20.11887202 25.77827276 -24.51863687 27.52389234 -29.03125 30.15625 C-25.98832417 32.18486722 -22.96773704 33.60840887 -19.65625 35.15625 C-11.96114025 38.87610825 -5.62361095 43.74271563 0.96875 49.15625 C2.63431069 50.49096462 4.30059128 51.82478387 5.96875 53.15625 C5.96875 51.83625 5.96875 50.51625 5.96875 49.15625 C3.60499434 47.04854266 3.60499434 47.04854266 0.96875 45.15625 C-1.69870985 41.15506022 -1.75624925 37.86457847 -1.03125 33.15625 C0.26819744 31.46303061 1.59801214 29.79229196 2.96875 28.15625 C2.83257428 24.91331416 2.83257428 24.91331416 1.96875 22.15625 C-3.26239061 21.96577934 -7.92862119 22.59427016 -12.96875 23.90625 Z M13.96875 23.15625 C15.45375 24.14625 15.45375 24.14625 16.96875 25.15625 C22.00824735 29.06443162 24.44849777 31.15034822 25.53125 37.40625 C24.90666639 41.57014076 24.32758516 42.08784281 21.46875 44.90625 C18.28725856 48.2031988 17.46875 50.18776468 17.46875 54.78125 C17.69411466 58.62371751 18.30208018 62.36734317 18.96875 66.15625 C21.51036712 66.46112331 24.04610304 66.7255858 26.59375 66.96875 C27.30660156 67.05833984 28.01945313 67.14792969 28.75390625 67.24023438 C32.92177451 67.61830612 32.92177451 67.61830612 36.70800781 66.08740234 C38.16820391 64.82168652 39.57129826 63.49091768 40.96875 62.15625 C45.03983776 60.99308207 47.15903135 60.87046695 51.15625 62.28125 C54.73214452 64.66517968 57.26860253 67.17249883 58.71875 71.28125 C60.81742118 74.42925678 64.41011125 75.22607116 67.96875 76.15625 C68.95875 76.15625 69.94875 76.15625 70.96875 76.15625 C68.09539611 62.0289267 61.5675378 49.00451915 50.96875 39.15625 C50.29457031 38.52460938 49.62039063 37.89296875 48.92578125 37.2421875 C39.86421823 29.52370793 25.95996263 22.5713128 13.96875 23.15625 Z M-51.03125 48.15625 C-51.5778125 48.92710937 -52.124375 49.69796875 -52.6875 50.4921875 C-58.67357929 59.68509499 -62.46414185 70.19215909 -63.03125 81.15625 C-59.88941942 80.57172338 -57.67395336 80.03248821 -55.73046875 77.3828125 C-55.33472656 76.68929687 -54.93898438 75.99578125 -54.53125 75.28125 C-52.24716666 71.3130166 -50.34215723 69.06299743 -46.03125 67.15625 C-42.8972545 66.99498093 -40.02731083 67.20321732 -37.03125 68.15625 C-36.58273682 68.66849121 -36.13422363 69.18073242 -35.67211914 69.70849609 C-34.14635029 71.34870471 -34.14635029 71.34870471 -32.04736328 71.30297852 C-31.28149902 71.19397217 -30.51563477 71.08496582 -29.7265625 70.97265625 C-28.84000977 70.85422363 -27.95345703 70.73579102 -27.04003906 70.61376953 C-26.04713867 70.46278809 -25.05423828 70.31180664 -24.03125 70.15625 C-22.92749023 70.00140137 -21.82373047 69.84655273 -20.68652344 69.68701172 C-17.08996091 69.17527339 -13.4980425 68.63790272 -9.90625 68.09375 C-8.66359375 67.90748047 -7.4209375 67.72121094 -6.140625 67.52929688 C-3.1038344 67.07377829 -0.06739489 66.61604925 2.96875 66.15625 C-5.2810559 52.06574466 -18.73615412 44.65054358 -34.03125 40.15625 C-34.89234375 39.8778125 -35.7534375 39.599375 -36.640625 39.3125 C-44.06570756 37.57144616 -47.07987775 42.48033817 -51.03125 48.15625 Z M22.96875 77.15625 C24.33854665 80.60469851 25.74391973 84.03752606 27.15625 87.46875 C27.54361328 88.44521484 27.93097656 89.42167969 28.33007812 90.42773438 C28.72001953 91.36552734 29.10996094 92.30332031 29.51171875 93.26953125 C29.86258545 94.13360596 30.21345215 94.99768066 30.57495117 95.88793945 C32.29346841 98.68470661 34.08530938 99.66147255 36.96875 101.15625 C43.76002358 106.04658019 43.76002358 106.04658019 44.96875 110.15625 C45.34375 113.59375 45.34375 113.59375 44.96875 117.15625 C44.288125 117.89875 43.6075 118.64125 42.90625 119.40625 C39.79277681 123.82537323 41.13853761 128.01808515 41.96875 133.15625 C42.14277344 134.27257812 42.31679688 135.38890625 42.49609375 136.5390625 C42.96206822 139.41653989 43.45304516 142.28732892 43.96875 145.15625 C58.34470264 136.94141992 65.8861906 123.20799865 70.28125 107.65625 C71.88261901 101.37296679 72.45208051 95.6140826 71.96875 89.15625 C66.64723761 86.25360688 61.16703313 83.29179894 54.96875 83.15625 C52.71875 84.90625 52.71875 84.90625 50.96875 87.15625 C46.72841206 88.56969598 43.74286167 88.21882619 39.6796875 86.3203125 C37.12347472 84.58115403 35.56300639 82.267765 33.9140625 79.6796875 C30.72315348 77.18078284 26.91862317 77.36894346 22.96875 77.15625 Z M-29.03125 82.15625 C-30.79500857 84.51423581 -30.79500857 84.51423581 -32.03125 87.15625 C-34.61594066 90.4287435 -36.99174955 92.74948895 -40.90625 94.28125 C-44.70020947 94.12949162 -46.81360207 92.82885553 -50.08203125 91.0234375 C-53.96136255 89.29756265 -57.14445466 90.82852129 -60.90625 92.21875 C-61.6075 92.528125 -62.30875 92.8375 -63.03125 93.15625 C-64.18232044 109.55900376 -57.06353901 124.48681762 -46.53125 136.65625 C-38.01936373 145.51497034 -27.21084243 152.72033151 -15.03125 155.15625 C-13.05125 152.18625 -11.07125 149.21625 -9.03125 146.15625 C-9.52625 145.475625 -10.02125 144.795 -10.53125 144.09375 C-12.40983915 140.41484625 -12.53363846 138.2471275 -12.03125 134.15625 C-9.94787139 130.28711829 -7.83076834 127.41221401 -4.03125 125.15625 C-3.37253906 125.06472656 -2.71382812 124.97320312 -2.03515625 124.87890625 C0.1499438 124.33278496 0.1499438 124.33278496 1.12890625 122.171875 C5.84333092 107.72246952 7.65676106 92.31797515 6.96875 77.15625 C-4.22871365 77.15625 -18.56126327 78.02533702 -29.03125 82.15625 Z M17.96875 92.15625 C17.82775879 92.90720947 17.68676758 93.65816895 17.54150391 94.43188477 C16.89562712 97.86148522 16.24473343 101.29011534 15.59375 104.71875 C15.26117187 106.49088867 15.26117187 106.49088867 14.921875 108.29882812 C13.04569889 118.1487527 13.04569889 118.1487527 11.79296875 122.33984375 C10.45512108 126.91135168 11.59125841 129.38728565 13.65625 133.59375 C14.96875 137.15625 14.96875 137.15625 14.46875 140.21875 C11.41089802 146.20704346 9.05625665 148.96321003 2.78125 151.28125 C1.92144531 151.55195313 1.06164062 151.82265625 0.17578125 152.1015625 C-2.47957527 153.37049394 -3.02552928 154.44810816 -4.03125 157.15625 C8.01366203 159.25348174 21.95760053 157.66182473 32.96875 152.15625 C33.98421288 149.10986136 33.97635566 148.1059929 33.4453125 145.06640625 C33.24421875 143.88981445 33.24421875 143.88981445 33.0390625 142.68945312 C32.89210938 141.87412109 32.74515625 141.05878906 32.59375 140.21875 C32.45453125 139.40728516 32.3153125 138.59582031 32.171875 137.75976562 C31.78831413 135.5542906 31.40060796 133.35278689 30.96875 131.15625 C30.8557959 130.44911865 30.7428418 129.7419873 30.62646484 129.01342773 C29.61540631 126.1585197 27.3009955 125.56367557 24.7578125 124.203125 C21.94252312 122.55575043 20.55423967 121.01013141 18.96875 118.15625 C18.42089185 115.05548585 18.36007177 112.25083836 18.96875 109.15625 C19.690625 108.33125 20.4125 107.50625 21.15625 106.65625 C23.2629187 104.36551993 23.2629187 104.36551993 22.63671875 101.9609375 C21.4435045 98.30488202 20.11079689 95.36932033 17.96875 92.15625 Z " fill="#000000" transform="translate(508.03125,180.84375)"/>
</svg>
